{
  "accessors": [
    {
      "bufferView": 2,
      "componentType": 5126,
      "count": 1824,
      "max": [
        47.23260498046875,
        3.959552049636841,
        42.44919204711914
      ],
      "min": [
        -49.1490478515625,
        -2.8621768951416016,
        -47.61007308959961
      ],
      "type": "VEC3"
    },
    {
      "bufferView": 2,
      "byteOffset": 21888,
      "componentType": 5126,
      "count": 1824,
      "max": [
        1.0,
        1.0,
        1.0
      ],
      "min": [
        -1.0,
        -1.0,
        -1.0
      ],
      "type": "VEC3"
    },
    {
      "bufferView": 3,
      "componentType": 5126,
      "count": 1824,
      "max": [
        0.9999390840530396,
        1.0,
        1.0,
        1.0
      ],
      "min": [
        -0.9999980330467224,
        -1.0,
        -1.0,
        1.0
      ],
      "type": "VEC4"
    },
    {
      "bufferView": 1,
      "componentType": 5126,
      "count": 1824,
      "max": [
        0.9844221472740173,
        0.9927383661270142
      ],
      "min": [
        0.012032359838485718,
        0.008227339945733547
      ],
      "type": "VEC2"
    },
    {
      "bufferView": 0,
      "componentType": 5125,
      "count": 5616,
      "type": "SCALAR"
    },
    {
      "bufferView": 2,
      "byteOffset": 43776,
      "componentType": 5126,
      "count": 1596,
      "max": [
        47.23260498046875,
        3.959552049636841,
        42.44919204711914
      ],
      "min": [
        -49.1490478515625,
        -2.8621768951416016,
        -47.61007308959961
      ],
      "type": "VEC3"
    },
    {
      "bufferView": 2,
      "byteOffset": 62928,
      "componentType": 5126,
      "count": 1596,
      "max": [
        1.0,
        1.0,
        0.999999463558197
      ],
      "min": [
        -1.0,
        -1.0,
        -1.0
      ],
      "type": "VEC3"
    },
    {
      "bufferView": 3,
      "byteOffset": 29184,
      "componentType": 5126,
      "count": 1596,
      "max": [
        0.9959770441055298,
        1.0,
        1.0,
        1.0
      ],
      "min": [
        -0.9999980330467224,
        -1.0,
        -1.0,
        1.0
      ],
      "type": "VEC4"
    },
    {
      "bufferView": 1,
      "byteOffset": 14592,
      "componentType": 5126,
      "count": 1596,
      "max": [
        0.9844221472740173,
        0.9823657870292664
      ],
      "min": [
        0.012032359838485718,
        0.008227339945733547
      ],
      "type": "VEC2"
    },
    {
      "bufferView": 0,
      "byteOffset": 22464,
      "componentType": 5125,
      "count": 4914,
      "type": "SCALAR"
    },
    {
      "bufferView": 2,
      "byteOffset": 82080,
      "componentType": 5126,
      "count": 1140,
      "max": [
        46.12096405029297,
        3.109527349472046,
        42.44919204711914
      ],
      "min": [
        -48.890838623046875,
        -2.8621768951416016,
        -44.73685836791992
      ],
      "type": "VEC3"
    },
    {
      "bufferView": 2,
      "byteOffset": 95760,
      "componentType": 5126,
      "count": 1140,
      "max": [
        1.0,
        1.0,
        1.0
      ],
      "min": [
        -1.0,
        -1.0,
        -1.0
      ],
      "type": "VEC3"
    },
    {
      "bufferView": 3,
      "byteOffset": 54720,
      "componentType": 5126,
      "count": 1140,
      "max": [
        0.9959770441055298,
        1.0,
        1.0,
        1.0
      ],
      "min": [
        -0.9999980330467224,
        -1.0,
        -1.0,
        1.0
      ],
      "type": "VEC4"
    },
    {
      "bufferView": 1,
      "byteOffset": 27360,
      "componentType": 5126,
      "count": 1140,
      "max": [
        0.9329094290733337,
        0.9823657870292664
      ],
      "min": [
        0.012032359838485718,
        0.008227339945733547
      ],
      "type": "VEC2"
    },
    {
      "bufferView": 0,
      "byteOffset": 42120,
      "componentType": 5125,
      "count": 3510,
      "type": "SCALAR"
    },
    {
      "bufferView": 2,
      "byteOffset": 109440,
      "componentType": 5126,
      "count": 9144,
      "max": [
        1.1459189653396606,
        1.1698309183120728,
        0.9776414632797241
      ],
      "min": [
        -1.1252589225769043,
        -1.18062424659729,
        -1.1660717725753784
      ],
      "type": "VEC3"
    },
    {
      "bufferView": 2,
      "byteOffset": 219168,
      "componentType": 5126,
      "count": 9144,
      "max": [
        1.0,
        1.0,
        1.0
      ],
      "min": [
        -1.0,
        -1.0,
        -1.0
      ],
      "type": "VEC3"
    },
    {
      "bufferView": 3,
      "byteOffset": 72960,
      "componentType": 5126,
      "count": 9144,
      "max": [
        1.0,
        1.0,
        1.0,
        1.0
      ],
      "min": [
        -1.0,
        -1.0,
        -1.0,
        1.0
      ],
      "type": "VEC4"
    },
    {
      "bufferView": 1,
      "byteOffset": 36480,
      "componentType": 5126,
      "count": 9144,
      "max": [
        0.9979969263076782,
        0.9976499080657959
      ],
      "min": [
        0.012032359838485718,
        0.008227339945733547
      ],
      "type": "VEC2"
    },
    {
      "bufferView": 0,
      "byteOffset": 56160,
      "componentType": 5125,
      "count": 28116,
      "type": "SCALAR"
    }
  ],
  "asset": {
    "extras": {
      "author": "SergeiLb (https://sketchfab.com/sergei_8888)",
      "license": "CC-BY-4.0 (http://creativecommons.org/licenses/by/4.0/)",
      "source": "https://sketchfab.com/3d-models/wooden-box-pallet-game-asset-2a4411c6956f4adeb7877f03436bb742",
      "title": "Wooden Box - Pallet. Game Asset"
    },
    "generator": "Sketchfab-15.14.0",
    "version": "2.0"
  },
  "bufferViews": [
    {
      "buffer": 0,
      "byteLength": 168624,
      "name": "floatBufferViews",
      "target": 34963
    },
    {
      "buffer": 0,
      "byteLength": 109632,
      "byteOffset": 168624,
      "byteStride": 8,
      "name": "floatBufferViews",
      "target": 34962
    },
    {
      "buffer": 0,
      "byteLength": 328896,
      "byteOffset": 278256,
      "byteStride": 12,
      "name": "floatBufferViews",
      "target": 34962
    },
    {
      "buffer": 0,
      "byteLength": 219264,
      "byteOffset": 607152,
      "byteStride": 16,
      "name": "floatBufferViews",
      "target": 34962
    }
  ],
  "buffers": [
    {
      "byteLength": 826416,
      "uri": "scene.bin"
    }
  ],
  "images": [
    {
      "uri": "textures/material_baseColor.png"
    },
    {
      "uri": "textures/material_metallicRoughness.png"
    },
    {
      "uri": "textures/material_normal.png"
    }
  ],
  "materials": [
    {
      "doubleSided": true,
      "name": "material",
      "normalTexture": {
        "index": 2
      },
      "occlusionTexture": {
        "index": 1
      },
      "pbrMetallicRoughness": {
        "baseColorTexture": {
          "index": 0
        },
        "metallicFactor": 0.0,
        "metallicRoughnessTexture": {
          "index": 1
        }
      }
    }
  ],
  "meshes": [
    {
      "name": "Circle_old_0",
      "primitives": [
        {
          "attributes": {
            "NORMAL": 1,
            "POSITION": 0,
            "TANGENT": 2,
            "TEXCOORD_0": 3
          },
          "indices": 4,
          "material": 0,
          "mode": 4
        }
      ]
    },
    {
      "name": "Circle.001_old_0",
      "primitives": [
        {
          "attributes": {
            "NORMAL": 6,
            "POSITION": 5,
            "TANGENT": 7,
            "TEXCOORD_0": 8
          },
          "indices": 9,
          "material": 0,
          "mode": 4
        }
      ]
    },
    {
      "name": "Circle.002_old_0",
      "primitives": [
        {
          "attributes": {
            "NORMAL": 11,
            "POSITION": 10,
            "TANGENT": 12,
            "TEXCOORD_0": 13
          },
          "indices": 14,
          "material": 0,
          "mode": 4
        }
      ]
    },
    {
      "name": "Cube_old_0",
      "primitives": [
        {
          "attributes": {
            "NORMAL": 16,
            "POSITION": 15,
            "TANGENT": 17,
            "TEXCOORD_0": 18
          },
          "indices": 19,
          "material": 0,
          "mode": 4
        }
      ]
    }
  ],
  "nodes": [
    {
      "children": [
        1
      ],
      "matrix": [
        1.0,
        0.0,
        0.0,
        0.0,
        0.0,
        2.220446049250313e-16,
        -1.0,
        0.0,
        0.0,
        1.0,
        2.220446049250313e-16,
        0.0,
        0.0,
        0.0,
        0.0,
        1.0
      ],
      "name": "Sketchfab_model"
    },
    {
      "children": [
        2
      ],
      "matrix": [
        0.009999999776482582,
        0.0,
        0.0,
        0.0,
        0.0,
        0.0,
        0.009999999776482582,
        0.0,
        0.0,
        -0.009999999776482582,
        0.0,
        0.0,
        0.0,
        0.0,
        0.0,
        1.0
      ],
      "name": "79f7bed015cd49efbe0cb56a8de6bd02.fbx"
    },
    {
      "children": [
        3,
        5,
        7,
        9
      ],
      "name": "RootNode"
    },
    {
      "children": [
        4
      ],
      "matrix": [
        5.399611949920654,
        -1.1989547021686098e-15,
        1.1989546307053409e-15,
        0.0,
        -1.1989545211314836e-15,
        -5.399611949920595,
        -8.153187211964996e-07,
        0.0,
        1.1989548117424506e-15,
        8.153187211964996e-07,
        -5.399611949920595,
        0.0,
        7.3186516761779785,
        41.10560989379883,
        -7.42974853515625,
        1.0
      ],
      "name": "Circle"
    },
    {
      "mesh": 0,
      "name": "Circle_old_0"
    },
    {
      "children": [
        6
      ],
      "matrix": [
        5.399611949920654,
        -1.1989547021686098e-15,
        1.1989546307053409e-15,
        0.0,
        -1.1989545211314836e-15,
        -5.399611949920595,
        -8.153187211964996e-07,
        0.0,
        1.1989548117424506e-15,
        8.153187211964996e-07,
        -5.399611949920595,
        0.0,
        -590.2943725585938,
        41.10560989379883,
        -7.42974853515625,
        1.0
      ],
      "name": "Circle.001"
    },
    {
      "mesh": 1,
      "name": "Circle.001_old_0"
    },
    {
      "children": [
        8
      ],
      "matrix": [
        5.399611949920654,
        -1.1989547021686098e-15,
        1.1989546307053409e-15,
        0.0,
        -1.1989545211314836e-15,
        -5.399611949920595,
        -8.153187211964996e-07,
        0.0,
        1.1989548117424506e-15,
        8.153187211964996e-07,
        -5.399611949920595,
        0.0,
        -1128.275146484375,
        41.10560989379883,
        -7.42974853515625,
        1.0
      ],
      "name": "Circle.002"
    },
    {
      "mesh": 2,
      "name": "Circle.002_old_0"
    },
    {
      "children": [
        10
      ],
      "matrix": [
        234.5104522705078,
        0.0,
        0.0,
        0.0,
        -0.0,
        -3.820660220839679e-05,
        -234.51045227050471,
        0.0,
        0.0,
        234.51045227050471,
        -3.820660220839679e-05,
        0.0,
        -1.307004690170288,
        240.15126037597656,
        -593.6510620117188,
        1.0
      ],
      "name": "Cube"
    },
    {
      "mesh": 3,
      "name": "Cube_old_0"
    }
  ],
  "samplers": [
    {
      "magFilter": 9729,
      "minFilter": 9987,
      "wrapS": 10497,
      "wrapT": 10497
    }
  ],
  "scene": 0,
  "scenes": [
    {
      "name": "Sketchfab_Scene",
      "nodes": [
        0
      ]
    }
  ],
  "textures": [
    {
      "sampler": 0,
      "source": 0
    },
    {
      "sampler": 0,
      "source": 1
    },
    {
      "sampler": 0,
      "source": 2
    }
  ]
}
